<svg style="display: none;" aria-hidden="true" xmlns="http://www.w3.org/2000/svg" xmlns:xlink="http://www.w3.org/1999/xlink">
<symbol viewBox="0 0 24 24"  id="svg-arrow-next"><path d="M5 12H19M12 5L19 12 12 19" stroke="#fff" stroke-width="2" stroke-linecap="round" stroke-linejoin="round"/></symbol>
<symbol viewBox="0 0 24 24"  id="svg-arrow-prev"><path fill-rule="evenodd" clip-rule="evenodd" d="M20 12C20 11.4477 19.5523 11 19 11H5C4.44771 11 4 11.4477 4 12C4 12.5523 4.44771 13 5 13H19C19.5523 13 20 12.5523 20 12Z" /><path fill-rule="evenodd" clip-rule="evenodd" d="M12.7071 4.29289C12.3166 3.90237 11.6834 3.90237 11.2929 4.29289L4.29289 11.2929C3.90237 11.6834 3.90237 12.3166 4.29289 12.7071L11.2929 19.7071C11.6834 20.0976 12.3166 20.0976 12.7071 19.7071C13.0976 19.3166 13.0976 18.6834 12.7071 18.2929L6.41421 12L12.7071 5.70711C13.0976 5.31658 13.0976 4.68342 12.7071 4.29289Z" /></symbol>
<symbol viewBox="0 0 46 33" fill="none" id="svg-check"><path d="M43.6667 2.5L15.25 30.9167L2.33334 18" stroke="#000" stroke-width="4" stroke-linecap="round" stroke-linejoin="round"/></symbol>
<symbol viewBox="0 0 75.294 75.294" id="svg-email"><path d="M66.097,12.089h-56.9C4.126,12.089,0,16.215,0,21.286v32.722c0,5.071,4.126,9.197,9.197,9.197h56.9 c5.071,0,9.197-4.126,9.197-9.197V21.287C75.295,16.215,71.169,12.089,66.097,12.089z M61.603,18.089L37.647,33.523L13.691,18.089 H61.603z M66.097,57.206h-56.9C7.434,57.206,6,55.771,6,54.009V21.457l29.796,19.16c0.04,0.025,0.083,0.042,0.124,0.065 c0.043,0.024,0.087,0.047,0.131,0.069c0.231,0.119,0.469,0.215,0.712,0.278c0.025,0.007,0.05,0.01,0.075,0.016 c0.267,0.063,0.537,0.102,0.807,0.102c0.001,0,0.002,0,0.002,0c0.002,0,0.003,0,0.004,0c0.27,0,0.54-0.038,0.807-0.102 c0.025-0.006,0.05-0.009,0.075-0.016c0.243-0.063,0.48-0.159,0.712-0.278c0.044-0.022,0.088-0.045,0.131-0.069 c0.041-0.023,0.084-0.04,0.124-0.065l29.796-19.16v32.551C69.295,55.771,67.86,57.206,66.097,57.206z"/></symbol>
<symbol viewBox="0 0 24 24"  id="svg-facebook"><path d="M10.695 8.937V10.314H9.68701V11.997H10.695V17H12.767V11.997H14.157C14.157 11.997 14.288 11.19 14.351 10.307H12.775V9.157C12.775 8.984 13.001 8.753 13.225 8.753H14.353V7H12.818C10.644 7 10.695 8.685 10.695 8.937Z" /><path d="M6 4C5.46957 4 4.96086 4.21071 4.58579 4.58579C4.21071 4.96086 4 5.46957 4 6V18C4 18.5304 4.21071 19.0391 4.58579 19.4142C4.96086 19.7893 5.46957 20 6 20H18C18.5304 20 19.0391 19.7893 19.4142 19.4142C19.7893 19.0391 20 18.5304 20 18V6C20 5.46957 19.7893 4.96086 19.4142 4.58579C19.0391 4.21071 18.5304 4 18 4H6ZM6 2H18C19.0609 2 20.0783 2.42143 20.8284 3.17157C21.5786 3.92172 22 4.93913 22 6V18C22 19.0609 21.5786 20.0783 20.8284 20.8284C20.0783 21.5786 19.0609 22 18 22H6C4.93913 22 3.92172 21.5786 3.17157 20.8284C2.42143 20.0783 2 19.0609 2 18V6C2 4.93913 2.42143 3.92172 3.17157 3.17157C3.92172 2.42143 4.93913 2 6 2V2Z" /></symbol>
<symbol viewBox="0 0 52 26" fill="none" id="svg-infinity"><path d="M20.389 5.6943C18.944 4.24884 17.1028 3.26438 15.0982 2.86541C13.0937 2.46644 11.0158 2.6709 9.12746 3.45291C7.23911 4.23492 5.62508 5.55937 4.4895 7.25875C3.35392 8.95812 2.7478 10.9561 2.7478 13C2.7478 15.0438 3.35392 17.0418 4.4895 18.7412C5.62508 20.4406 7.23911 21.765 9.12746 22.547C11.0158 23.329 13.0937 23.5335 15.0982 23.1345C17.1028 22.7356 18.944 21.7511 20.389 20.3056C22.6819 18.2262 24.5825 15.7517 26 13C27.4176 10.2483 29.3181 7.7737 31.611 5.6943C33.056 4.24884 34.8972 3.26438 36.9018 2.86541C38.9064 2.46644 40.9842 2.6709 42.8726 3.45291C44.7609 4.23492 46.3749 5.55937 47.5105 7.25875C48.6461 8.95812 49.2522 10.9561 49.2522 13C49.2522 15.0438 48.6461 17.0418 47.5105 18.7412C46.3749 20.4406 44.7609 21.765 42.8726 22.547C40.9842 23.329 38.9064 23.5335 36.9018 23.1345C34.8972 22.7356 33.056 21.7511 31.611 20.3056C29.3181 18.2262 27.4176 15.7517 26 13C24.5825 10.2483 22.6819 7.7737 20.389 5.6943" stroke="#000" stroke-width="4" stroke-linecap="round" stroke-linejoin="round"/></symbol>
<symbol viewBox="0 0 24 24"  id="svg-instagram"><path d="M16.017 2H7.947C6.37015 2.00185 4.85844 2.62914 3.74353 3.74424C2.62862 4.85933 2.00159 6.37115 2 7.948L2 16.018C2.00185 17.5948 2.62914 19.1066 3.74424 20.2215C4.85933 21.3364 6.37115 21.9634 7.948 21.965H16.018C17.5948 21.9631 19.1066 21.3359 20.2215 20.2208C21.3364 19.1057 21.9634 17.5938 21.965 16.017V7.947C21.9631 6.37015 21.3359 4.85844 20.2208 3.74353C19.1057 2.62862 17.5938 2.00159 16.017 2V2ZM19.957 16.017C19.957 16.5344 19.8551 17.0468 19.6571 17.5248C19.4591 18.0028 19.1689 18.4371 18.803 18.803C18.4371 19.1689 18.0028 19.4591 17.5248 19.6571C17.0468 19.8551 16.5344 19.957 16.017 19.957H7.947C6.90222 19.9567 5.90032 19.5415 5.16165 18.8026C4.42297 18.0638 4.008 17.0618 4.008 16.017V7.947C4.00827 6.90222 4.42349 5.90032 5.16235 5.16165C5.90122 4.42297 6.90322 4.008 7.948 4.008H16.018C17.0628 4.00827 18.0647 4.42349 18.8034 5.16235C19.542 5.90122 19.957 6.90322 19.957 7.948V16.018V16.017Z" /><path d="M11.982 6.81885C10.6134 6.82096 9.30154 7.36563 8.33391 8.33345 7.36627 9.30127 6.82186 10.6133 6.82001 11.9818 6.82159 13.3508 7.36603 14.6632 8.33391 15.6312 9.30179 16.5993 10.6141 17.144 11.983 17.1458 13.3521 17.1443 14.6647 16.5997 15.6328 15.6316 16.6008 14.6635 17.1454 13.3509 17.147 11.9818 17.1449 10.6129 16.5999 9.30073 15.6317 8.33304 14.6634 7.36535 13.3509 6.82117 11.982 6.81985V6.81885zM11.982 15.1378C11.1452 15.1378 10.3428 14.8054 9.75109 14.2138 9.15941 13.6221 8.82701 12.8196 8.82701 11.9828 8.82701 11.1461 9.15941 10.3436 9.75109 9.75193 10.3428 9.16025 11.1452 8.82785 11.982 8.82785 12.8188 8.82785 13.6213 9.16025 14.2129 9.75193 14.8046 10.3436 15.137 11.1461 15.137 11.9828 15.137 12.8196 14.8046 13.6221 14.2129 14.2138 13.6213 14.8054 12.8188 15.1378 11.982 15.1378zM17.156 8.09509C17.8392 8.09509 18.393 7.54127 18.393 6.85809 18.393 6.17492 17.8392 5.62109 17.156 5.62109 16.4728 5.62109 15.919 6.17492 15.919 6.85809 15.919 7.54127 16.4728 8.09509 17.156 8.09509z" /></symbol>
<symbol viewBox="0 0 73 86"  id="svg-play"><path d="M15.9908 2.37906C9.32808 -1.72106 0.749817 3.07244 0.749817 10.8956V75.1043C0.749817 82.9275 9.32809 87.721 15.9908 83.6209L68.1603 51.5166C74.5057 47.6117 74.5057 38.3882 68.1603 34.4834L15.9908 2.37906Z" /></symbol>
<symbol viewBox="0 0 44 45" fill="none" id="svg-present"><path d="M36.6667 15.1524H7.33333C6.32081 15.1524 5.5 15.9732 5.5 16.9857V20.6524C5.5 21.6649 6.32081 22.4857 7.33333 22.4857H36.6667C37.6792 22.4857 38.5 21.6649 38.5 20.6524V16.9857C38.5 15.9732 37.6792 15.1524 36.6667 15.1524zM22 15.1524V38.9857" stroke="#000" stroke-width="3" stroke-linecap="round" stroke-linejoin="round"/><path d="M34.8333 22.4857V35.3191C34.8333 36.2915 34.447 37.2241 33.7594 37.9118 33.0717 38.5994 32.1391 38.9857 31.1667 38.9857H12.8333C11.8609 38.9857 10.9282 38.5994 10.2406 37.9118 9.55296 37.2241 9.16666 36.2915 9.16666 35.3191V22.4857M13.75 15.1524C12.5344 15.1524 11.3686 14.6695 10.5091 13.81 9.64954 12.9504 9.16666 11.7846 9.16666 10.569 9.16666 9.35347 9.64954 8.18768 10.5091 7.32814 11.3686 6.4686 12.5344 5.98571 13.75 5.98571 15.5186 5.9549 17.2517 6.81302 18.7233 8.44817 20.195 10.0833 21.3368 12.4196 22 15.1524 22.6632 12.4196 23.805 10.0833 25.2766 8.44817 26.7483 6.81302 28.4814 5.9549 30.25 5.98571 31.4656 5.98571 32.6314 6.4686 33.4909 7.32814 34.3504 8.18768 34.8333 9.35347 34.8333 10.569 34.8333 11.7846 34.3504 12.9504 33.4909 13.81 32.6314 14.6695 31.4656 15.1524 30.25 15.1524" stroke="#000" stroke-width="3" stroke-linecap="round" stroke-linejoin="round"/></symbol>
<symbol viewBox="0 0 24 24"  id="svg-telegram"><path d="M6 4C5.46957 4 4.96086 4.21071 4.58579 4.58579C4.21071 4.96086 4 5.46957 4 6V18C4 18.5304 4.21071 19.0391 4.58579 19.4142C4.96086 19.7893 5.46957 20 6 20H18C18.5304 20 19.0391 19.7893 19.4142 19.4142C19.7893 19.0391 20 18.5304 20 18V6C20 5.46957 19.7893 4.96086 19.4142 4.58579C19.0391 4.21071 18.5304 4 18 4H6ZM6 2H18C19.0609 2 20.0783 2.42143 20.8284 3.17157C21.5786 3.92172 22 4.93913 22 6V18C22 19.0609 21.5786 20.0783 20.8284 20.8284C20.0783 21.5786 19.0609 22 18 22H6C4.93913 22 3.92172 21.5786 3.17157 20.8284C2.42143 20.0783 2 19.0609 2 18V6C2 4.93913 2.42143 3.92172 3.17157 3.17157C3.92172 2.42143 4.93913 2 6 2V2Z" /><path d="M15.1314 7.07392L7.97006 9.46094C7.38086 9.65726 7 10.186 7 10.8073C7 11.4285 7.38086 11.9568 7.97047 12.1535L10.878 13.1225L11.847 16.0304C12.0434 16.6192 12.5717 17 13.1929 17C13.8142 17 14.3426 16.6192 14.5393 16.0296L16.9264 8.86851C17.0971 8.35562 16.9659 7.79941 16.5834 7.41693C16.2009 7.03445 15.6439 6.90242 15.1314 7.07392ZM13.1929 14.7979L12.1949 11.8046L9.20176 10.8069L15.1879 8.81154L13.1929 14.7979Z" /></symbol>
<symbol viewBox="0 0 54 42" fill="none" id="svg-truck"><path fill-rule="evenodd" clip-rule="evenodd" d="M15.0834 30.75C13.3345 30.75 11.9167 32.1678 11.9167 33.9167 11.9167 35.6656 13.3345 37.0833 15.0834 37.0833 16.8323 37.0833 18.25 35.6656 18.25 33.9167 18.25 32.1678 16.8323 30.75 15.0834 30.75zM7.91669 33.9167C7.91669 29.9586 11.1253 26.75 15.0834 26.75 19.0414 26.75 22.25 29.9586 22.25 33.9167 22.25 37.8747 19.0414 41.0833 15.0834 41.0833 11.1253 41.0833 7.91669 37.8747 7.91669 33.9167zM40.9167 30.75C39.1678 30.75 37.75 32.1678 37.75 33.9167 37.75 35.6656 39.1678 37.0833 40.9167 37.0833 42.6656 37.0833 44.0833 35.6656 44.0833 33.9167 44.0833 32.1678 42.6656 30.75 40.9167 30.75zM33.75 33.9167C33.75 29.9586 36.9586 26.75 40.9167 26.75 44.8747 26.75 48.0833 29.9586 48.0833 33.9167 48.0833 37.8747 44.8747 41.0833 40.9167 41.0833 36.9586 41.0833 33.75 37.8747 33.75 33.9167z" fill="#000"/><path fill-rule="evenodd" clip-rule="evenodd" d="M0.166687 2.91663C0.166687 1.81206 1.06212 0.916626 2.16669 0.916626H30.5834C31.6879 0.916626 32.5834 1.81206 32.5834 2.91663V3.49996H43.5C44.2025 3.49996 44.8536 3.86856 45.215 4.47097L52.965 17.3876C53.1515 17.6985 53.25 18.0541 53.25 18.4166V33.9166C53.25 35.0212 52.3546 35.9166 51.25 35.9166H46.0834C44.9788 35.9166 44.0834 35.0212 44.0834 33.9166C44.0834 32.8121 44.9788 31.9166 46.0834 31.9166H49.25V20.4166H32.5834V31.9166H35.75C36.8546 31.9166 37.75 32.8121 37.75 33.9166C37.75 35.0212 36.8546 35.9166 35.75 35.9166H20.25C19.1455 35.9166 18.25 35.0212 18.25 33.9166C18.25 32.8121 19.1455 31.9166 20.25 31.9166H28.5834V4.91663H2.16669C1.06212 4.91663 0.166687 4.0212 0.166687 2.91663ZM32.5834 7.49996V16.4166H47.7176L42.3676 7.49996H32.5834ZM4.75002 21.5833C5.85459 21.5833 6.75002 22.4787 6.75002 23.5833V31.9166H9.91669C11.0213 31.9166 11.9167 32.8121 11.9167 33.9166C11.9167 35.0212 11.0213 35.9166 9.91669 35.9166H4.75002C3.64545 35.9166 2.75002 35.0212 2.75002 33.9166V23.5833C2.75002 22.4787 3.64545 21.5833 4.75002 21.5833Z" fill="#000"/><path fill-rule="evenodd" clip-rule="evenodd" d="M2.75 13.25C2.75 12.1454 3.64543 11.25 4.75 11.25H15.0833C16.1879 11.25 17.0833 12.1454 17.0833 13.25C17.0833 14.3546 16.1879 15.25 15.0833 15.25H4.75C3.64543 15.25 2.75 14.3546 2.75 13.25Z" fill="#000"/></symbol>
<symbol viewBox="0 0 24 24" id="svg-viber"><path d="M15.644 11.404C15.656 9.91197 14.425 8.54396 12.9 8.35496L12.8 8.33996C12.7235 8.32478 12.6459 8.31608 12.568 8.31396C12.255 8.31396 12.172 8.53996 12.15 8.67496C12.1375 8.73103 12.1364 8.78903 12.1467 8.84554C12.157 8.90204 12.1785 8.95591 12.21 9.00396C12.314 9.14896 12.496 9.17396 12.642 9.19596C12.685 9.20196 12.726 9.20696 12.759 9.21596C14.13 9.53096 14.592 10.028 14.817 11.431C14.823 11.466 14.825 11.508 14.827 11.553C14.837 11.72 14.858 12.069 15.222 12.069C15.252 12.069 15.284 12.067 15.318 12.061C15.657 12.008 15.646 11.689 15.641 11.536C15.639 11.493 15.638 11.452 15.641 11.425C15.6421 11.4183 15.6428 11.4117 15.643 11.405L15.644 11.404Z" /><path d="M12.48 7.80689C12.52 7.80989 12.56 7.81289 12.591 7.81789C14.841 8.17589 15.877 9.27589 16.164 11.6179C16.169 11.6579 16.169 11.7059 16.17 11.7579C16.173 11.9409 16.179 12.3209 16.575 12.3289H16.587C16.6414 12.3318 16.6957 12.323 16.7464 12.3032C16.7971 12.2833 16.843 12.2529 16.881 12.2139C17.004 12.0809 16.996 11.8839 16.989 11.7239C16.987 11.6859 16.985 11.6489 16.986 11.6169C17.014 9.22189 15.006 7.04989 12.688 6.96989L12.66 6.97089C12.6511 6.97221 12.642 6.97287 12.633 6.97289C12.61 6.97289 12.581 6.97089 12.551 6.96889C12.515 6.96589 12.473 6.96289 12.431 6.96289C12.062 6.96289 11.992 7.23289 11.983 7.39489C11.963 7.76789 12.312 7.79489 12.48 7.80689ZM16.055 14.6439C16.0069 14.6062 15.9592 14.5678 15.912 14.5289C15.666 14.3249 15.404 14.1369 15.152 13.9549C15.0993 13.917 15.0466 13.879 14.994 13.8409C14.67 13.6069 14.379 13.4919 14.104 13.4919C13.734 13.4919 13.411 13.7039 13.144 14.1209C13.026 14.3049 12.882 14.3949 12.706 14.3949C12.5831 14.3905 12.4627 14.3595 12.353 14.3039C11.308 13.8139 10.561 13.0639 10.134 12.0739C9.92801 11.5939 9.99401 11.2819 10.358 11.0269C10.564 10.8829 10.948 10.6139 10.921 10.0989C10.891 9.51389 9.64001 7.75389 9.11301 7.55389C8.8882 7.46905 8.6403 7.46834 8.41501 7.55189C7.81001 7.76189 7.37501 8.13189 7.15801 8.61889C6.94801 9.09089 6.95801 9.64389 7.18601 10.2199C7.84301 11.8859 8.76601 13.3379 9.93201 14.5359C11.072 15.7089 12.474 16.6689 14.098 17.3909C14.244 17.4559 14.398 17.4909 14.51 17.5169L14.605 17.5409C14.618 17.5446 14.6315 17.5466 14.645 17.5469H14.658C15.422 17.5469 16.339 16.8269 16.621 16.0049C16.868 15.2849 16.417 14.9299 16.055 14.6449V14.6439ZM12.818 9.70989C12.688 9.71289 12.415 9.71989 12.319 10.0059C12.275 10.1399 12.28 10.2559 12.335 10.3509C12.416 10.4909 12.572 10.5339 12.713 10.5569C13.225 10.6419 13.489 10.9349 13.541 11.4769C13.566 11.7309 13.731 11.9069 13.943 11.9069C13.959 11.9072 13.9751 11.9066 13.991 11.9049C14.246 11.8729 14.369 11.6799 14.358 11.3299C14.362 10.9639 14.177 10.5499 13.862 10.2199C13.546 9.88789 13.165 9.70089 12.818 9.70989Z" /><path d="M6 4C5.46957 4 4.96086 4.21071 4.58579 4.58579C4.21071 4.96086 4 5.46957 4 6V18C4 18.5304 4.21071 19.0391 4.58579 19.4142C4.96086 19.7893 5.46957 20 6 20H18C18.5304 20 19.0391 19.7893 19.4142 19.4142C19.7893 19.0391 20 18.5304 20 18V6C20 5.46957 19.7893 4.96086 19.4142 4.58579C19.0391 4.21071 18.5304 4 18 4H6ZM6 2H18C19.0609 2 20.0783 2.42143 20.8284 3.17157C21.5786 3.92172 22 4.93913 22 6V18C22 19.0609 21.5786 20.0783 20.8284 20.8284C20.0783 21.5786 19.0609 22 18 22H6C4.93913 22 3.92172 21.5786 3.17157 20.8284C2.42143 20.0783 2 19.0609 2 18V6C2 4.93913 2.42143 3.92172 3.17157 3.17157C3.92172 2.42143 4.93913 2 6 2V2Z" /></symbol>
<symbol viewBox="0 0 62 62" fill="none" id="svg-web"><path fill-rule="evenodd" clip-rule="evenodd" d="M31 9.75C19.2639 9.75 9.75 19.2639 9.75 31C9.75 42.736 19.2639 52.25 31 52.25C42.736 52.25 52.25 42.736 52.25 31C52.25 19.2639 42.736 9.75 31 9.75ZM5.75 31C5.75 17.0548 17.0548 5.75 31 5.75C44.9452 5.75 56.25 17.0548 56.25 31C56.25 44.9452 44.9452 56.25 31 56.25C17.0548 56.25 5.75 44.9452 5.75 31Z" fill="#000"/><path fill-rule="evenodd" clip-rule="evenodd" d="M7.29999 23.25C7.29999 22.1454 8.19542 21.25 9.29999 21.25H52.7C53.8046 21.25 54.7 22.1454 54.7 23.25 54.7 24.3546 53.8046 25.25 52.7 25.25H9.29999C8.19542 25.25 7.29999 24.3546 7.29999 23.25zM7.29999 38.75C7.29999 37.6454 8.19542 36.75 9.29999 36.75H52.7C53.8046 36.75 54.7 37.6454 54.7 38.75 54.7 39.8546 53.8046 40.75 52.7 40.75H9.29999C8.19542 40.75 7.29999 39.8546 7.29999 38.75z" fill="#000"/><path fill-rule="evenodd" clip-rule="evenodd" d="M30.7671 6.05329C31.7042 6.63807 31.9898 7.87177 31.405 8.80885C27.2512 15.4652 25.049 23.1539 25.049 31C25.049 38.8462 27.2512 46.5348 31.405 53.1912C31.9898 54.1283 31.7042 55.362 30.7671 55.9468C29.8301 56.5315 28.5964 56.2459 28.0116 55.3088C23.4614 48.0173 21.049 39.5949 21.049 31C21.049 22.4051 23.4614 13.9828 28.0116 6.6912C28.5964 5.75412 29.8301 5.46852 30.7671 6.05329Z" fill="#000"/><path fill-rule="evenodd" clip-rule="evenodd" d="M31.2328 6.0533C32.1699 5.46852 33.4036 5.75412 33.9884 6.6912C38.5386 13.9828 40.951 22.4051 40.951 31C40.951 39.5949 38.5386 48.0173 33.9884 55.3088C33.4036 56.2459 32.1699 56.5315 31.2328 55.9468C30.2957 55.362 30.0101 54.1283 30.5949 53.1912C34.7488 46.5348 36.951 38.8462 36.951 31C36.951 23.1539 34.7488 15.4652 30.5949 8.80885C30.0101 7.87177 30.2957 6.63807 31.2328 6.0533Z" fill="#000"/></symbol></svg>